<svg xmlns="http://www.w3.org/2000/svg" width="123" height="24" fill="none"><path fill="#fff" d="M11.864.6q4.896 0 7.744 2.464 2.848 2.432 2.848 6.976h-6.752q0-1.92-1.024-3.04-.991-1.12-2.848-1.12-2.144 0-3.168 1.344-.992 1.344-.992 3.744v2.048q0 2.368.992 3.744 1.024 1.344 3.104 1.344 2.048 0 3.104-1.056t1.056-2.976h6.528q0 4.512-2.784 6.912-2.752 2.4-7.808 2.4-5.632 0-8.544-2.88-2.88-2.88-2.88-8.512T3.32 3.48Q6.232.6 11.864.6m22.314 5.12q3.873 0 6.304 1.312 2.433 1.28 2.432 4.192v6.592q0 .544.256.896c.256.352.427.352.768.352h1.152v3.68q-.096.064-.512.224a8 8 0 0 1-1.12.256q-.736.16-1.696.16-1.855 0-3.072-.544-1.184-.576-1.632-1.568a10.3 10.3 0 0 1-2.72 1.536q-1.504.576-3.52.576-5.952 0-5.952-4.736 0-2.464 1.312-3.744 1.344-1.312 3.84-1.792t6.528-.48V11.8q0-.992-.704-1.504-.672-.512-1.76-.512-.992 0-1.728.352-.705.352-.704 1.12v.128h-6.272a2.4 2.4 0 0 1-.032-.448q0-2.4 2.272-3.808 2.304-1.408 6.56-1.408m2.368 9.92q-2.72 0-4.032.608-1.28.576-1.28 1.568 0 1.6 2.176 1.6 1.249 0 2.176-.672.96-.672.96-1.664zm20.896-9.952q.735 0 1.312.192.576.16.576.192v5.344h-2.048q-1.984 0-2.88 1.024-.864 1.024-.864 3.04V23H47.17V6.104h5.216l.416 2.56q.576-1.472 1.824-2.208 1.247-.768 2.816-.768m13.183.032q4.64 0 7.072 2.176 2.463 2.176 2.464 6.656v1.088H67.489q0 1.824.8 2.752.831.928 2.592.928 1.6 0 2.336-.672.768-.672.768-1.792h6.176q0 3.072-2.336 4.8-2.337 1.728-6.816 1.728-4.704 0-7.296-2.176-2.592-2.208-2.592-6.656 0-4.352 2.528-6.592t6.976-2.24m.256 4.064q-3.009 0-3.36 2.848h6.208q0-1.312-.768-2.08-.735-.768-2.08-.768M91.969 5.72q4.447 0 6.976 2.272 2.56 2.24 2.56 6.56t-2.56 6.592q-2.529 2.24-6.976 2.24-4.449 0-6.976-2.24-2.529-2.24-2.528-6.592t2.528-6.592 6.976-2.24m0 4.32q-3.136 0-3.136 3.616v1.824q0 3.585 3.136 3.584 3.168 0 3.168-3.584v-1.824q0-3.615-3.168-3.616m24.255-4.32q2.944 0 4.416 1.632t1.472 4.704V23h-6.368V12.824q0-1.088-.576-1.728-.543-.672-1.568-.672-1.184 0-1.92.768-.735.768-.736 1.888V23h-6.368V6.104h5.216l.416 2.56q.993-1.344 2.592-2.144a7.7 7.7 0 0 1 3.424-.8"/></svg>