<svg xmlns="http://www.w3.org/2000/svg" width="24" height="24" fill="none"><path fill="#fff" d="M11.3 8.3 9.225 6.2a.96.96 0 0 1-.3-.7q0-.4.3-.7l2.078-2.1a.96.96 0 0 1 .706-.3q.41 0 .716.3L14.8 4.8q.3.3.3.7t-.3.7l-2.078 2.1a.96.96 0 0 1-.706.3 1 1 0 0 1-.716-.3M2 20a.97.97 0 0 1-.712-.288A.97.97 0 0 1 1 19v-3q0-.85.588-1.425A1.95 1.95 0 0 1 3 14h3.275q.5 0 .95.25t.725.675a5.16 5.16 0 0 0 1.788 1.525Q10.802 17 12 17a4.9 4.9 0 0 0 2.288-.55 4.9 4.9 0 0 0 1.762-1.525q.325-.425.763-.675t.912-.25H21q.85 0 1.425.575T23 16v3a.97.97 0 0 1-.288.713A.96.96 0 0 1 22 20h-5a.97.97 0 0 1-.712-.288A.97.97 0 0 1 16 19v-1.275A6.8 6.8 0 0 1 12 19a6.7 6.7 0 0 1-2.1-.337A7 7 0 0 1 8 17.7V19a.97.97 0 0 1-.288.713A.96.96 0 0 1 7 20zm2-7a2.9 2.9 0 0 1-2.125-.875A2.9 2.9 0 0 1 1 10q0-1.275.875-2.137C2.75 7.001 3.167 7 4 7q1.275 0 2.138.863C7.001 8.726 7.001 9.15 7 10q0 1.25-.862 2.125C5.276 13 4.851 13 4 13m16 0a2.9 2.9 0 0 1-2.125-.875A2.9 2.9 0 0 1 17 10q0-1.275.875-2.137C18.75 7.001 19.167 7 20 7q1.275 0 2.138.863c.863.863.863 1.287.862 2.137q0 1.25-.862 2.125C21.276 13 20.851 13 20 13"/></svg>